<svg width="136" height="54" viewBox="0 0 136 54" fill="none" xmlns="http://www.w3.org/2000/svg">
<path d="M0 0H136V54H0V0Z" fill="#F0141E"/>
<path d="M115.089 12.5871V4.31758H91.7766L87.9387 31.9337L84.147 4.31758H75.74L76.6795 11.6918C75.7104 9.80182 72.2701 4.31758 64.6949 4.31758C64.6446 4.31434 56.2779 4.31758 56.2779 4.31758L56.2431 44.5703L50.1168 4.31758L39.1052 4.31434L32.7665 46.0204L32.77 4.31758H22.2295L18.431 27.7449L14.7307 4.31758H4.18854V49.6592H12.4908V27.8043L16.2678 49.6592H20.6807L24.4044 27.8043V49.6592H40.4083L41.3761 42.6851H47.8192L48.787 49.6592L64.5007 49.6692H64.5121V49.6592H64.5317V34.9431L66.4558 34.6667L70.4436 49.6692H78.5718L78.5685 49.6592H78.5917L73.3589 32.0795C76.0085 30.1412 79.0035 25.2272 78.2065 20.5241V20.5224C78.2163 20.5835 83.1471 49.6895 83.1471 49.6895L92.8123 49.6598L99.4162 8.56495V49.6598H115.088V41.506H107.65V31.1091H115.088V22.8309H107.65V12.5871H115.089V12.5871ZM42.3539 35.4969L44.6352 16.1104L46.9989 35.4969H42.3539ZM66.4825 26.5451C65.8449 26.8483 65.1812 27 64.5317 27.0016V12.4189C64.5418 12.4189 64.557 12.4173 64.5733 12.4173C65.2207 12.4124 70.0685 12.6101 70.0685 19.6287C70.0685 23.3002 68.4202 25.6157 66.4825 26.5451V26.5451ZM131.813 41.4985V49.6492H116.523V4.3111H124.757V41.4985H131.813Z" fill="white"/>
</svg>
